<?xml version="1.0" encoding="UTF-8"?>
<svg width="17px" height="17px" viewBox="0 0 17 17" version="1.1" xmlns="http://www.w3.org/2000/svg" xmlns:xlink="http://www.w3.org/1999/xlink">
    <!-- Generator: Sketch 59 (86127) - https://sketch.com -->
    <title>路径@3x</title>
    <desc>Created with Sketch.</desc>
    <g id="跟随" stroke="none" stroke-width="1" fill="none" fill-rule="evenodd">
        <g id="待晋级" transform="translate(-286.000000, -366.000000)">
            <g id="编组-5备份" transform="translate(13.000000, 272.000000)">
                <g id="heart-2-line" transform="translate(273.000000, 94.000000)">
                    <polygon id="路径" points="0 0 16.8 0 16.8 16.8 0 16.8"></polygon>
                    <path d="M14.8253,8.9558 L14.8344,8.9656 L8.4,15.4 L1.9656,8.9656 L1.9747,8.9558 C0.424824879,7.14890307 0.529734342,4.45276199 2.21532698,2.77176025 C3.90091962,1.0907585 6.59733679,0.993202662 8.4,2.548 C10.2026632,0.993202662 12.8990804,1.0907585 14.584673,2.77176025 C16.2702657,4.45276199 16.3751751,7.14890307 14.8253,8.9558 L14.8253,8.9558 Z M3.2025,3.7681 C2.61175206,4.3588407 2.27987272,5.16006137 2.27987272,5.9955 C2.27987272,6.83093863 2.61175206,7.6321593 3.2025,8.2229 L8.4,13.4204 L13.5975,8.2229 C14.8276591,6.99274095 14.8276591,4.99825905 13.5975,3.7681 C12.3673409,2.53794095 10.3728591,2.53794095 9.1427,3.7681 L6.1726,6.7382 L5.1828,5.747 L7.3962,3.5336 C6.14286023,2.53261023 4.33748674,2.63327714 3.2032,3.7674 L3.2025,3.7681 Z" id="形状" fill="#797C84" fill-rule="nonzero"></path>
                </g>
            </g>
        </g>
    </g>
</svg>